<svg id="Calque_1" data-name="Calque 1" xmlns="http://www.w3.org/2000/svg" viewBox="0 0 828.08 308"><defs><style>.cls-1{fill:#f9b221;}.cls-2{fill:#f193bd;}</style></defs><title>Plan de travail 3</title><path class="cls-1" d="M85.25,94.46a22.5,22.5,0,0,0-15.73,6.21c-4.51,4.09-6.7,8.67-6.7,14s1.53,9.45,4.68,12.52,7.51,4.6,13.27,4.6a23.13,23.13,0,0,0,15.77-6.24c4.68-4.1,6.94-8.62,6.94-13.82s-1.54-9.37-4.71-12.54S91.18,94.46,85.25,94.46Z"/><path class="cls-1" d="M98.92,260.08c-11.87,5.64-13.29,5.64-14.23,5.64-5.55,0-5.55-8.3-5.55-11.85,0-6.19,2.5-18.71,7.66-38.27,5-18.78,7.45-32.12,7.45-39.66,0-7.2-1.06-11-2.17-12.92-19.56.06-34.24,1.25-43.71,3.55l0,.34,1.83,2.45a41,41,0,0,1,7.88,23.93c0,5.52-2.32,16.9-7.1,34.78-4.57,17.11-6.89,29.09-6.89,35.6,0,6.07,1.56,10.7,4.78,14.16s7.48,5.05,13.17,5.05c6,0,12.72-1.82,19.92-5.42,7.42-3.7,12.51-6.65,15.13-8.74q2.82-2.27,4.87-4l-2.41-5Z"/><path class="cls-2" d="M85.25,88.4a28.66,28.66,0,0,0-19.81,7.78c-5.76,5.24-8.69,11.45-8.69,18.47s2.19,12.65,6.51,16.86,10.19,6.32,17.51,6.32a29.36,29.36,0,0,0,19.77-7.75c6-5.24,9-11.42,9-18.37s-2.18-12.52-6.49-16.83S92.76,88.4,85.25,88.4Zm13.29,39.4a26.26,26.26,0,0,1-17.77,7q-9.8,0-15.39-5.46t-5.59-14.69q0-9.23,7.69-16.23a25.65,25.65,0,0,1,17.77-7q10.08,0,15.67,5.59t5.6,14.69Q106.52,120.82,98.54,127.8Z"/><path class="cls-2" d="M96.26,254.63c-6.33,3-9.3,4.22-10.62,4.71a24.68,24.68,0,0,1-.43-5.47c0-5.58,2.5-17.94,7.45-36.72,5.15-19.56,7.66-33,7.66-41.21,0-8.67-1.44-14.54-4.38-17.94L95,157H93.65c-22.7,0-38.71,1.41-49,4.31l-2,.57-.53,6.89,3.15,4.19A35,35,0,0,1,52,193.29c0,4.92-2.31,16.09-6.89,33.21-4.78,17.87-7.1,30-7.1,37.17,0,7.57,2.16,13.72,6.41,18.29s10.24,7,17.61,7c7,0,14.58-2,22.63-6.05s13.21-7,16.21-9.44c2.85-2.28,5.12-4.18,6.84-5.7l1.71-1.53-7.11-14.61ZM99,271.08q-4.2,3.36-15.67,9.1T62,285.91q-9.8,0-15.39-6T41,263.67q0-10.22,7-36.38t7-34a37.76,37.76,0,0,0-7.28-22.11l-2.52-3.36.28-3.64Q60.35,160,93.65,160q3.63,4.19,3.63,15.95t-7.55,40.43q-7.56,28.69-7.56,37.5t2.52,8.82q1.68,0,12.87-5.32l3.36-1.68,4.76,9.79Q103.16,267.73,99,271.08Z"/><path class="cls-1" d="M204.11,257.5a73,73,0,0,1-12.74,6.72,39.75,39.75,0,0,1-15.46,3.46c-15.75,0-23.74-12.32-23.74-36.62a120.28,120.28,0,0,1,6.9-40.9c4.94-13.68,11.93-20.61,20.76-20.61a15.5,15.5,0,0,1,8.68,2.18l1.64,1.09-4.25,24.89a38.11,38.11,0,0,0,11.68,5.85,52,52,0,0,0,13.88,2.89,28.2,28.2,0,0,0,6.19-18.34c0-7.37-3.22-13.45-9.87-18.59-6.8-5.24-16.2-7.9-27.95-7.9-18.22,0-33.32,6.62-44.88,19.68s-17.57,30.67-17.57,52c0,15.3,3.47,27.57,10.29,36.5s16.66,13.08,30.33,13.08a59.84,59.84,0,0,0,17.31-2.67,70.61,70.61,0,0,0,14.49-5.89,120.8,120.8,0,0,0,12.28-8.18,61.4,61.4,0,0,0,6.9-5.83l-3.13-4.21Z"/><path class="cls-2" d="M200.5,252.63a66.74,66.74,0,0,1-11.5,6,33.77,33.77,0,0,1-13.09,3c-4.37,0-17.67,0-17.67-30.55a114,114,0,0,1,6.53-38.84c4-11,9-16.61,15.06-16.61a13.48,13.48,0,0,1,3.62.42L179.37,200l1.18,1.11c3.48,3.28,8.57,6,15.11,8.23a55.62,55.62,0,0,0,17.19,3.23h1.38l.91-1a34.52,34.52,0,0,0,8.58-23.4c0-9.25-4.12-17.12-12.23-23.39-7.89-6.08-18.54-9.16-31.66-9.16-20,0-36.66,7.31-49.42,21.73s-19.09,33.16-19.09,56c0,16.66,3.88,30.18,11.53,40.18,7.85,10.26,19.68,15.46,35.15,15.46A66,66,0,0,0,177.07,286a77.56,77.56,0,0,0,15.74-6.43,126.48,126.48,0,0,0,12.9-8.6c4.76-3.57,7.9-6.43,9.59-8.76l1.32-1.8-9.65-13Zm3.4,15.93a123.84,123.84,0,0,1-12.59,8.4,73.9,73.9,0,0,1-15.12,6.15,62.33,62.33,0,0,1-18.19,2.8q-21.83,0-32.74-14.27T114.35,233.3q0-33.3,18.33-54t47.15-20.7q18.75,0,29.81,8.53t11.05,21a31.45,31.45,0,0,1-7.84,21.41,52.41,52.41,0,0,1-16.23-3.08q-9.23-3.08-14-7.56l4.2-24.62a12.54,12.54,0,0,0-7-1.68q-11.19,0-17.91,18.61a116.53,116.53,0,0,0-6.71,39.87q0,33.58,20.7,33.59a36.63,36.63,0,0,0,14.28-3.22,71.07,71.07,0,0,0,12-6.3l4.2-3.36,6.43,8.68Q210.62,263.52,203.9,268.56Z"/><path class="cls-1" d="M323.05,209.39c4.15-5.6,6.26-12.66,6.26-21,0-8.12-3.09-14.42-9.44-19.28-6.52-5-15-7.49-25.31-7.49-17,0-32.45,6.54-45.89,19.44s-20.19,30.73-20.19,53.08c0,15.45,3.53,27.6,10.5,36.14s16.13,12.6,28.16,12.6a69.73,69.73,0,0,0,34.07-8.58,119.57,119.57,0,0,0,12.24-8.16,61.39,61.39,0,0,0,6.89-5.82L317,255.81l-1.75,1.41a58.22,58.22,0,0,1-12.42,7.12,38.46,38.46,0,0,1-15.5,3.62c-10.22,0-22.79-5-24.58-29.11L262.5,236l9.58-1.2c10.57-1.61,22.51-5.66,35.41-12A45.08,45.08,0,0,0,323.05,209.39Zm-32.65,5.49c-6,6.84-14.25,11.22-24.41,13l-3.56.63v-3.61a115.14,115.14,0,0,1,5.88-34.64c4.25-13.38,10.72-20.16,19.25-20.16,5.47,0,12,3.14,12,18.14C299.55,199,296.47,208,290.4,214.88Z"/><path class="cls-1" d="M287.57,173.14q-10.65,0-16.37,18.05t-5.74,33.72q14.27-2.52,22.67-12t8.39-24.63Q296.52,173.15,287.57,173.14Zm-1.72,37.73a33.91,33.91,0,0,1-17.27,10.26,113.4,113.4,0,0,1,5.5-29c3.36-10.58,7.9-15.94,13.48-15.94,1.63,0,5.92,0,5.92,12.08C293.48,197.52,290.92,205.13,285.85,210.87Z"/><path class="cls-2" d="M310.21,228.16A50.93,50.93,0,0,0,327.91,213c4.95-6.67,7.46-14.95,7.46-24.62a28.94,28.94,0,0,0-11.82-24.1c-7.61-5.79-17.36-8.73-29-8.73-18.63,0-35.49,7.11-50.09,21.13s-22.06,33.38-22.06,57.45c0,16.88,4,30.33,11.87,40,8,9.84,19.09,14.82,32.86,14.82a75.79,75.79,0,0,0,37-9.35,127.08,127.08,0,0,0,12.91-8.6c4.77-3.59,7.91-6.45,9.59-8.76l1.31-1.81-9.94-13.25-6.63,5.31a52,52,0,0,1-11.09,6.32,32.52,32.52,0,0,1-13,3.09c-6.87,0-16.05-2.21-18.25-20.63l3.87-.48C284.18,239.06,296.72,234.82,310.21,228.16Zm-44.47,10.46q2,26.31,21.55,26.31a35.23,35.23,0,0,0,14.27-3.36,54.5,54.5,0,0,0,11.75-6.72l4.2-3.36,6.72,9q-2.25,3.07-9,8.11a122.74,122.74,0,0,1-12.59,8.4,72.35,72.35,0,0,1-35.54,9q-19.3,0-30.5-13.71t-11.2-38.06q0-35,21.13-55.27t48-20.28q16.51,0,27.15,8.11a25.94,25.94,0,0,1,10.63,21.69q0,13.58-6.86,22.81a47.86,47.86,0,0,1-16.65,14.27q-19.86,9.79-36.37,12.31Z"/><path class="cls-1" d="M623.7,201.35l-3.18.15v-3.18c0-38.66-14.36-38.66-19.08-38.66a19.59,19.59,0,0,0-9.22,2.16l-.74.4-10.92-.61c-18.57,0-32.84,6.93-43.43,21.17s-16,31.7-16,51.64c0,15.45,3.45,27.57,10.25,36s15.84,12.44,27.86,12.44c16.11,0,28.95-6.7,39.26-20.47,10.48-14,17.55-30.75,21-49.79l.37-2,7.61-1.53c4.86-.95,9.22-2,13.14-3.05q.72-3.34,1.48-6.87A145.84,145.84,0,0,1,623.7,201.35Zm-12.3,14.13A104,104,0,0,1,598,248.33c-6.81,11-14.78,16.55-23.7,16.55-12.22,0-18.43-11.19-18.43-33.26,0-14.47,2.14-27.54,6.35-38.83,4.37-11.74,9.07-19.1,14.36-22.48,2-1.32,5.84-1.39,8.3-.17l2.72,1.36L584.84,177a36.64,36.64,0,0,0-3.31,15.44c0,8.31,2.79,19.35,26.91,19.35h3.76Z"/><path class="cls-2" d="M578.5,192.45a39.3,39.3,0,0,1,3.64-16.79l1.39-2.8a6.26,6.26,0,0,0-2.8-.56,4.6,4.6,0,0,0-2.51.56q-7,4.47-13.15,21t-6.16,37.77q0,30.23,15.39,30.23,11.76,0,21.13-15.12a100.54,100.54,0,0,0,13-31.9Q578.5,214.83,578.5,192.45Zm14.35,52.69c-5.63,9.07-11.87,13.68-18.55,13.68-8.2,0-12.36-9.15-12.36-27.2,0-13.75,2-26.1,6-36.71,4.08-11,7.85-16.11,10.59-18.49a43,43,0,0,0-3,16c0,11,5.19,24.08,29.17,25.32A98.83,98.83,0,0,1,592.85,245.14Z"/><path class="cls-1" d="M503.74,258.52c-7.63,3.61-13.18,5.35-17,5.35-3,0-6.12-2.34-10.23-7.6-7.18-9.86-15.29-29.63-24.88-60.54l-.69-2.2,2.56-1.65a96.3,96.3,0,0,0,17-14.87,112.91,112.91,0,0,0,13.26-18,90.44,90.44,0,0,0,13.07-43.83,81.35,81.35,0,0,0-12.25-45.11,97.67,97.67,0,0,0-14.34-17.95,84.41,84.41,0,0,0-18.29-13.88,80.11,80.11,0,0,0-44.16-10.36,77.59,77.59,0,0,0-42,15.44A75.94,75.94,0,0,0,350,59.39a61,61,0,0,0-9.62,20.88,58.48,58.48,0,0,0,6.91,44c8,13.26,21.51,22.41,36.27,24.49A45.51,45.51,0,0,0,423.38,134a35.62,35.62,0,0,0,6.21-9.21A30.58,30.58,0,0,0,432.15,114a34.28,34.28,0,0,0-5.49-20.43c-4.18-6.33-10-10.79-16.42-12.54A25,25,0,0,0,390.4,84a24.3,24.3,0,0,0-7.07,7,19.44,19.44,0,0,0-2.88,7.27,20.78,20.78,0,0,1,11-12.64,22.31,22.31,0,0,1,17.78-.94c5.08,1.89,9.74,6.21,12.75,11.83a27.42,27.42,0,0,1,2.91,17,22.49,22.49,0,0,1-2.69,7.88,27,27,0,0,1-5.26,6.31,36.23,36.23,0,0,1-14.82,8.24,34.79,34.79,0,0,1-16.41.35,37.36,37.36,0,0,1-24.75-19.87,41.54,41.54,0,0,1-2.42-31.29A42,42,0,0,1,366,71.37,55.07,55.07,0,0,1,408.62,51h.09a54.72,54.72,0,0,1,30.07,9.07,58,58,0,0,1,11.8,10.62,61.05,61.05,0,0,1,8.6,13.57c8.71,18.84,5.21,47.05-3.74,59.69-14.49,20.47-32.05,27.76-43.66,27.76l-43.15-.92c-3.15,14.79-19.56,91.93-22.8,110.5,1,0,2.21.05,3.77.05,15.34,0,27-1.64,34.6-4.86,1.24-14.93,6.49-42.33,15.62-81.51l.54-2.34h2.41c3.15,0,7.69-.19,13.52-.55l2.62-.17.54,2.58C423.7,215,428,232,432.1,245.1c4.08,12.86,8.63,22.68,13.52,29.17,4.57,6.06,10.18,9,17.17,9,7.45,0,15.59-2,24.22-5.89a88.17,88.17,0,0,0,21.25-13.48l-3.63-5.83Z"/><path class="cls-2" d="M501.09,253.07c-8.28,3.92-12.38,4.74-14.32,4.74-.06,0-1.63-.31-5.44-5.19-6.46-8.88-14.29-27.9-23.26-56.55a101.54,101.54,0,0,0,16.89-15,119,119,0,0,0,14-18.94c8.74-14.75,13.55-30.93,13.9-46.75a86.16,86.16,0,0,0-13.14-48.47,103.92,103.92,0,0,0-15.18-19A90,90,0,0,0,454.89,33a86.38,86.38,0,0,0-47.52-11.16,83.79,83.79,0,0,0-45.31,16.66,81.85,81.85,0,0,0-16.95,17.36,67,67,0,0,0-10.6,23,64.5,64.5,0,0,0,7.61,48.53,57.43,57.43,0,0,0,40.66,27.36,51.51,51.51,0,0,0,45.12-16.69,41.62,41.62,0,0,0,7.23-10.79,36.46,36.46,0,0,0,3.06-12.88,40.28,40.28,0,0,0-6.45-24.11c-5-7.59-12.08-12.94-19.89-15.08a31.32,31.32,0,0,0-24.71,3.64,30.36,30.36,0,0,0-8.88,8.79,24.7,24.7,0,0,0-4.06,12.11,24.22,24.22,0,0,0,10.51,21.64,4.9,4.9,0,0,0,5.88-7.83A13.3,13.3,0,0,1,386,101.08c.64-4,3.74-7.89,8.1-10.08A16.15,16.15,0,0,1,407,90.31c3.75,1.39,7.23,4.68,9.53,9a21.66,21.66,0,0,1,2.3,13.17,16.55,16.55,0,0,1-1.95,5.81,20.92,20.92,0,0,1-4.16,4.94A30.24,30.24,0,0,1,400.45,130a28.57,28.57,0,0,1-13.47.27,31.63,31.63,0,0,1-20.64-16.66,35.51,35.51,0,0,1,4.31-38.43,48.89,48.89,0,0,1,38-18.17h.09a48.55,48.55,0,0,1,26.65,8,52.44,52.44,0,0,1,10.56,9.5,55.61,55.61,0,0,1,7.74,12.2c7.73,16.76,4.64,42.6-3.18,53.65-13.16,18.59-28.63,25.21-38.65,25.21l-48.1-1-.52,2.46c-.92,4.31-22.61,105.83-23.92,116.66l-.35,3,3,.41a62.87,62.87,0,0,0,7.69.31c17.6,0,30.3-2,38.83-6.18l1.58-.77.11-1.76c.9-13.86,6-40.78,15.06-80,2.43,0,5.4-.18,8.87-.37,4.11,19.57,8.24,35.93,12.27,48.66,4.29,13.52,9.15,23.95,14.46,31,5.71,7.58,13.11,11.42,22,11.42,8.31,0,17.3-2.16,26.72-6.43a93.19,93.19,0,0,0,24.72-16.2l1.85-1.7-9.22-14.83Zm-12.83,27.08q-13.59,6.15-25.47,6.16T443.2,276.09q-7.69-10.2-14-30.08t-12.73-50.93c-6,.38-10.54.56-13.71.56q-14.28,61.29-15.67,82.83-12,5.88-37.5,5.88a63,63,0,0,1-7.28-.28c1.3-10.82,23.87-116.39,23.87-116.39l45.59,1c11.16,0,27.61-7.3,41.19-26.49,8.14-11.49,11.81-38.57,3.46-56.67a57.85,57.85,0,0,0-8.17-12.88A55.11,55.11,0,0,0,437.1,62.57,51.48,51.48,0,0,0,408.63,54a52,52,0,0,0-40.31,19.27A38.54,38.54,0,0,0,363.64,115a34.44,34.44,0,0,0,22.66,18.24,31.66,31.66,0,0,0,14.95-.29,33.23,33.23,0,0,0,13.58-7.55,23.73,23.73,0,0,0,4.71-5.63,19.43,19.43,0,0,0,2.32-6.85,24.6,24.6,0,0,0-2.59-15c-2.49-4.64-6.43-8.67-11.17-10.43a19.19,19.19,0,0,0-15.33.82c-4.85,2.43-8.87,6.9-9.73,12.31a16.4,16.4,0,0,0,5.59,15.27,1.87,1.87,0,0,1-2.24,3A21.21,21.21,0,0,1,377.22,100a21.84,21.84,0,0,1,3.58-10.69,27.16,27.16,0,0,1,8-7.89A28.07,28.07,0,0,1,411,78.12c7.72,2.11,14,7.46,18.17,13.83a37,37,0,0,1,6,22.25,33.59,33.59,0,0,1-2.8,11.82,38.25,38.25,0,0,1-6.72,10,48.48,48.48,0,0,1-42.5,15.72c-16-2.25-30.24-12.27-38.43-25.9a61.62,61.62,0,0,1-7.26-46.28,63.74,63.74,0,0,1,10.12-22,78.38,78.38,0,0,1,16.3-16.69,80.31,80.31,0,0,1,43.67-16.06,82.84,82.84,0,0,1,45.82,10.76,87,87,0,0,1,19,14.39,100.41,100.41,0,0,1,14.75,18.46,83.8,83.8,0,0,1,12.7,46.78c-.36,16.46-5.65,32.11-13.48,45.33A116,116,0,0,1,472.7,179a98.5,98.5,0,0,1-17.49,15.35c-.23.16-.47.31-.71.46q14.08,45.39,24.38,59.58,5,6.43,7.84,6.43,5,0,15.67-5l3.36-1.68,6.43,10.35A89.78,89.78,0,0,1,488.26,280.15Z"/><path class="cls-1" d="M686.87,266.11c-5.55,0-5.55-8.79-5.55-13.52,0-7.29,4.64-31.94,14.2-75.37,9.33-42.4,14.06-71.32,14.06-86,0-5.62-.72-8.83-1.52-10.66a122.45,122.45,0,0,0-35.76,6.58L673.64,97c0,19-4.66,49.59-13.89,91.31-9.15,41.29-13.78,66-13.78,73.5,0,7,1.77,12.2,5.43,15.93,7.48,7.64,18.94,7.33,35.71-.62A120.52,120.52,0,0,0,707.64,265L705,259.84Z"/><path class="cls-2" d="M707.93,252.34l-20.06,7.17a34.67,34.67,0,0,1-.49-6.92c0-6.75,4.73-31.67,14.06-74.07,9.56-43.43,14.2-72,14.2-87.26,0-7.24-1.1-12.3-3.36-15.47l-.9-1.27h-1.57c-13,0-27,2.6-41.84,7.72l-2.35.81,2,14.37c0,18.15-4.63,48.3-13.78,89.59-9.36,42.31-13.92,66.78-13.92,74.81,0,8.54,2.41,15.32,7.16,20.17a24.38,24.38,0,0,0,18.12,7.35c7,0,15-2.2,24.53-6.73a122.84,122.84,0,0,0,23.67-14.36l1.35-1.07c-.08-.61-.09-1.27-.14-1.9Zm-19.52,27.53q-13.57,6.44-23.23,6.44a21.39,21.39,0,0,1-15.95-6.44q-6.3-6.44-6.29-18.05t13.85-74.15q13.85-62.55,13.85-90.25L669,85.11q21.82-7.56,40.86-7.56c1.86,2.61,2.79,7.19,2.79,13.71q0,22.39-14.13,86.61t-14.13,74.72q0,10.5,2.52,10.49l19.59-7,5,9.79A118.71,118.71,0,0,1,688.41,279.87Z"/><path class="cls-1" d="M766.3,266.11c-5.55,0-5.55-8.79-5.55-13.52,0-7.29,4.65-31.94,14.2-75.37,9.34-42.41,14.06-71.34,14.06-86,0-5.62-.72-8.83-1.52-10.66a122.51,122.51,0,0,0-35.76,6.58L753.07,97c0,19-4.65,49.59-13.89,91.31-9.14,41.29-13.78,66-13.78,73.5,0,7,1.78,12.2,5.43,15.93,7.48,7.64,18.95,7.33,35.71-.62A120.13,120.13,0,0,0,787.07,265l-2.66-5.18Z"/><path class="cls-2" d="M767.3,259.51a35.81,35.81,0,0,1-.48-6.92c0-6.75,4.73-31.67,14.06-74.07,9.56-43.44,14.2-72,14.2-87.26,0-7.24-1.1-12.3-3.36-15.47l-.91-1.27h-1.56c-13,0-27,2.6-41.85,7.72l-2.35.81,2,14.37c0,18.15-4.63,48.3-13.78,89.59-9.37,42.3-13.93,66.78-13.93,74.81,0,1.22.16,2.31.26,3.46l.74,1.43-.6.47c.83,6,3.06,11,6.76,14.81a24.41,24.41,0,0,0,18.13,7.35c6.85,0,15.1-2.26,24.52-6.73a122.33,122.33,0,0,0,23.67-14.35l2-1.55-7.39-14.37Zm.54,20.36q-13.58,6.44-23.22,6.44a21.39,21.39,0,0,1-16-6.44q-6.28-6.44-6.29-18.05t13.85-74.15q13.86-62.55,13.85-90.25l-1.68-12.31q21.84-7.56,40.86-7.56c1.87,2.61,2.8,7.19,2.8,13.71q0,22.39-14.13,86.61t-14.13,74.72q0,10.5,2.51,10.49l19.59-7,5,9.79A119.11,119.11,0,0,1,767.84,279.87Z"/><path class="cls-2" d="M649.23,191.68s-17.12,3-22.68,3.43c-.6-27.55-9-41.51-25.11-41.51a25.78,25.78,0,0,0-11.28,2.47l-9.43-.51c-20.51,0-36.81,7.94-48.46,23.6-11.45,15.39-17.25,34-17.25,55.26,0,16.86,3.9,30.26,11.58,39.82,7.85,9.76,18.81,14.7,32.59,14.7,17.9,0,32.75-7.7,44.12-22.9,10.67-14.25,18-31.17,21.72-50.31L645,211ZM628,212l-5.6,1.13q-5.32,29.37-21.55,51.06t-41.69,21.69q-19.31,0-30.22-13.57t-10.92-37.92q0-31,16.65-53.45t46-22.38l10.08.56a22.36,22.36,0,0,1,10.63-2.52q22.11,0,22.11,41.69c6.1-.29,19-2.26,21.79-2.81l-2.86,13.09S632.38,211.18,628,212Z"/></svg>